<?xml version="1.0" encoding="utf-8"?>
<!-- Generator: Adobe Illustrator 23.0.1, SVG Export Plug-In . SVG Version: 6.00 Build 0)  -->
<svg version="1.1" id="Calque_1" xmlns="http://www.w3.org/2000/svg" xmlns:xlink="http://www.w3.org/1999/xlink" x="0px" y="0px"
	 viewBox="0 0 29 20" style="enable-background:new 0 0 29 20;" xml:space="preserve">
<path d="M17.6,1.7C17.5,1.6,16.4,0,14.4,0c-2.1,0-3.2,1.7-3.2,1.8C7.4,7.9,3.7,13.9-0.1,20c9.7,0,19.4,0,29.1,0
	C25.2,13.9,21.4,7.8,17.6,1.7z M14.1,16.1c-0.2-0.6-0.4-1.1-0.6-1.7c-0.2-0.5-0.3-1.1-0.5-1.6C11,14,9,15.3,7,16.5
	c2.4-4.2,4.9-8.3,7.3-12.5c2.3,3.8,4.5,7.6,6.8,11.5c-1-0.5-1.9-1.1-2.9-1.6c-1-0.6-2-1.1-3-1.7c-0.2,0.7-0.5,1.4-0.7,2.2
	C14.4,15,14.2,15.5,14.1,16.1z"/>
</svg>
